# 
# Generated by Sweet Home 3D - do feb 23 21:13:21 CET 2023
# http://www.sweethome3d.com/
# 
mtllib KDG_Zijblok_vloer.mtl
g room_1_1
usemtl room_1_1
v 803.75 0.0 7996.248
v 3335.3657 0.0 8002.2954
v 3339.1135 0.0 7879.3096
v 4029.3223 0.0 7879.3105
v 4125.8135 0.0 8492.809
v 7946.109 0.0 8490.5625
v 7958.0273 0.0 8090.818
v 8918.095 0.0 8093.0503
v 8927.791 0.0 8391.552
v 9717.568 0.0 8389.302
v 9717.568 0.0 8486.098
v 10158.568 0.0 8498.1
v 10158.568 0.0 8394.506
v 10448.852 0.0 8390.0
v 10444.318 0.0 7875.5386
v 10459.581 0.0 7672.1094
v 10532.747 0.0 7313.323
v 10515.213 0.0 6879.7603
v 10435.319 0.0 6388.125
v 10432.283 0.0 5903.7954
v 9188.857 0.0 5891.75
v 9185.779 0.0 5456.05
v 7433.7617 0.0 5451.5625
v 7429.261 0.0 5748.5615
v 4458.568 0.0 5746.306
v 4458.5674 0.0 5631.559
v 2791.25 0.0 5623.309
v 2791.25 0.0 5956.25
v 803.75 0.0 5963.75
vt 40.1875 -399.8124 0
vt 166.7683 -400.11478 0
vt 166.95567 -393.96548 0
vt 201.46611 -393.96555 0
vt 206.29068 -424.64044 0
vt 397.30545 -424.52814 0
vt 397.90137 -404.5409 0
vt 445.90475 -404.65253 0
vt 446.38956 -419.5776 0
vt 485.87842 -419.4651 0
vt 485.87842 -424.3049 0
vt 507.92844 -424.905 0
vt 507.92844 -419.7253 0
vt 522.44257 -419.5 0
vt 522.21594 -393.77695 0
vt 522.97906 -383.60547 0
vt 526.6374 -365.66617 0
vt 525.7607 -343.988 0
vt 521.766 -319.40625 0
vt 521.6142 -295.1898 0
vt 459.44287 -294.5875 0
vt 459.28897 -272.8025 0
vt 371.68808 -272.57812 0
vt 371.46307 -287.42807 0
vt 222.92839 -287.3153 0
vt 222.92838 -281.57797 0
vt 139.5625 -281.16547 0
vt 139.5625 -297.8125 0
vt 40.1875 -298.1875 0
vn 0.0 1.0 0.0
f 28/28/1 29/29/1 1/1/1
f 28/28/1 1/1/1 2/2/1
f 28/28/1 2/2/1 3/3/1
f 28/28/1 3/3/1 4/4/1
f 27/27/1 28/28/1 4/4/1
f 26/26/1 27/27/1 4/4/1
f 26/26/1 4/4/1 5/5/1
f 25/25/1 26/26/1 5/5/1
f 25/25/1 5/5/1 6/6/1
f 25/25/1 6/6/1 7/7/1
f 25/25/1 7/7/1 8/8/1
f 24/24/1 25/25/1 8/8/1
f 23/23/1 24/24/1 8/8/1
f 22/22/1 23/23/1 8/8/1
f 22/22/1 8/8/1 9/9/1
f 21/21/1 22/22/1 9/9/1
f 21/21/1 9/9/1 10/10/1
f 20/20/1 21/21/1 10/10/1
f 20/20/1 10/10/1 11/11/1
f 19/19/1 20/20/1 11/11/1
f 18/18/1 19/19/1 11/11/1
f 17/17/1 18/18/1 11/11/1
f 16/16/1 17/17/1 11/11/1
f 15/15/1 16/16/1 11/11/1
f 13/13/1 14/14/1 15/15/1
f 13/13/1 15/15/1 11/11/1
f 13/13/1 11/11/1 12/12/1
